<svg xmlns="http://www.w3.org/2000/svg" xmlns:xlink="http://www.w3.org/1999/xlink" width="234.733" height="180.99" viewBox="0 0 234.733 180.99">
  <defs>
    <linearGradient id="linear-gradient" x1="0.5" x2="0.5" y2="1" gradientUnits="objectBoundingBox">
      <stop offset="0" stop-color="#f65f60"/>
      <stop offset="1" stop-color="#ffb56b"/>
    </linearGradient>
    <filter id="Path_2" x="62.202" y="17.678" width="131.302" height="119.557" filterUnits="userSpaceOnUse">
      <feOffset dy="3" input="SourceAlpha"/>
      <feGaussianBlur stdDeviation="3" result="blur"/>
      <feFlood flood-opacity="0.161"/>
      <feComposite operator="in" in2="blur"/>
      <feComposite in="SourceGraphic"/>
    </filter>
    <filter id="Path_6" x="72.202" y="17.678" width="131.302" height="119.557" filterUnits="userSpaceOnUse">
      <feOffset dy="3" input="SourceAlpha"/>
      <feGaussianBlur stdDeviation="3" result="blur-2"/>
      <feFlood flood-opacity="0.161"/>
      <feComposite operator="in" in2="blur-2"/>
      <feComposite in="SourceGraphic"/>
    </filter>
    <filter id="Path_7" x="43.136" y="9.575" width="143.433" height="135.762" filterUnits="userSpaceOnUse">
      <feOffset dy="3" input="SourceAlpha"/>
      <feGaussianBlur stdDeviation="3" result="blur-3"/>
      <feFlood flood-opacity="0.161"/>
      <feComposite operator="in" in2="blur-3"/>
      <feComposite in="SourceGraphic"/>
    </filter>
    <filter id="Path_4" x="0" y="12.62" width="124.6" height="124.599" filterUnits="userSpaceOnUse">
      <feOffset dy="3" input="SourceAlpha"/>
      <feGaussianBlur stdDeviation="20" result="blur-4"/>
      <feFlood flood-color="#bb19d3"/>
      <feComposite operator="in" in2="blur-4"/>
      <feComposite in="SourceGraphic"/>
    </filter>
    <filter id="Path_10" x="59" y="59.013" width="121.978" height="121.977" filterUnits="userSpaceOnUse">
      <feOffset dy="3" input="SourceAlpha"/>
      <feGaussianBlur stdDeviation="20" result="blur-5"/>
      <feFlood flood-color="#bb19d3"/>
      <feComposite operator="in" in2="blur-5"/>
      <feComposite in="SourceGraphic"/>
    </filter>
    <filter id="Path_12" x="61" y="56.013" width="121.978" height="121.977" filterUnits="userSpaceOnUse">
      <feOffset dy="3" input="SourceAlpha"/>
      <feGaussianBlur stdDeviation="20" result="blur-6"/>
      <feFlood flood-color="#bb19d3"/>
      <feComposite operator="in" in2="blur-6"/>
      <feComposite in="SourceGraphic"/>
    </filter>
    <filter id="Path_13" x="63" y="59.013" width="121.978" height="121.977" filterUnits="userSpaceOnUse">
      <feOffset dy="3" input="SourceAlpha"/>
      <feGaussianBlur stdDeviation="20" result="blur-7"/>
      <feFlood flood-color="#bb19d3"/>
      <feComposite operator="in" in2="blur-7"/>
      <feComposite in="SourceGraphic"/>
    </filter>
    <filter id="Path_11" x="86" y="51.62" width="124.6" height="124.599" filterUnits="userSpaceOnUse">
      <feOffset dy="3" input="SourceAlpha"/>
      <feGaussianBlur stdDeviation="20" result="blur-8"/>
      <feFlood flood-color="#bb19d3"/>
      <feComposite operator="in" in2="blur-8"/>
      <feComposite in="SourceGraphic"/>
    </filter>
    <filter id="Path_8" x="9" y="15" width="128.733" height="128.731" filterUnits="userSpaceOnUse">
      <feOffset dy="3" input="SourceAlpha"/>
      <feGaussianBlur stdDeviation="20" result="blur-9"/>
      <feFlood flood-color="#bb19d3"/>
      <feComposite operator="in" in2="blur-9"/>
      <feComposite in="SourceGraphic"/>
    </filter>
    <filter id="Path_9" x="106" y="0" width="128.733" height="128.731" filterUnits="userSpaceOnUse">
      <feOffset dy="3" input="SourceAlpha"/>
      <feGaussianBlur stdDeviation="20" result="blur-10"/>
      <feFlood flood-color="#bb19d3"/>
      <feComposite operator="in" in2="blur-10"/>
      <feComposite in="SourceGraphic"/>
    </filter>
    <linearGradient id="linear-gradient-13" x1="0.5" x2="0.5" y2="1" gradientUnits="objectBoundingBox">
      <stop offset="0" stop-color="#f77e76"/>
      <stop offset="1" stop-color="#fca167"/>
    </linearGradient>
  </defs>
  <g id="LogoBg" transform="translate(-147.996 -553.626)">
    <g id="Logo_Bg" data-name="Logo Bg" transform="translate(139 516)">
      <circle id="Ellipse_8" data-name="Ellipse 8" cx="21" cy="21" r="21" transform="translate(89 105)" opacity="0.53" fill="url(#linear-gradient)"/>
      <circle id="Ellipse_9" data-name="Ellipse 9" cx="21" cy="21" r="21" transform="translate(129 75)" opacity="0.53" fill="url(#linear-gradient)"/>
      <g transform="matrix(1, 0, 0, 1, 9, 37.63)" filter="url(#Path_2)">
        <path id="Path_2-2" data-name="Path 2" d="M55.709.267c17.5.151,10.94,33.423,21.931,45.554S100.175,67.4,100.222,74.689c.173,26.592-24.312-3.205-53.152-2.17S-.723,77.243.287,57.565s30.7-6.155,38.182-23.637S40.955.139,55.709.267Z" transform="matrix(0.98, -0.17, 0.17, 0.98, 70.91, 40.82)" fill="url(#linear-gradient)"/>
      </g>
      <g transform="matrix(1, 0, 0, 1, 9, 37.63)" filter="url(#Path_6)">
        <path id="Path_6-2" data-name="Path 6" d="M55.709.267c17.5.151,10.94,33.423,21.931,45.554S100.175,67.4,100.222,74.689c.173,26.592-24.312-3.205-53.152-2.17S-.723,77.243.287,57.565s30.7-6.155,38.182-23.637S40.955.139,55.709.267Z" transform="matrix(0.98, -0.17, 0.17, 0.98, 80.91, 40.82)" opacity="0.77" fill="url(#linear-gradient)"/>
      </g>
      <g transform="matrix(1, 0, 0, 1, 9, 37.63)" filter="url(#Path_7)">
        <path id="Path_7-2" data-name="Path 7" d="M55.709.267c17.5.151,10.94,33.423,21.931,45.554S100.175,67.4,100.222,74.689c.173,26.592-24.312-3.205-53.152-2.17S-.723,77.243.287,57.565s30.7-6.155,38.182-23.637S40.955.139,55.709.267Z" transform="matrix(0.92, -0.39, 0.39, 0.92, 51.8, 54.49)" opacity="0.86" fill="url(#linear-gradient)"/>
      </g>
      <g transform="matrix(1, 0, 0, 1, 9, 37.63)" filter="url(#Path_4)">
        <path id="Path_4-2" data-name="Path 4" d="M1.985.015a2.021,2.021,0,0,1,2,2,1.95,1.95,0,0,1-1.971,1.97,2.021,2.021,0,0,1-2-2A1.95,1.95,0,0,1,1.985.015Z" transform="matrix(0.98, -0.17, 0.17, 0.98, 59.98, 70.3)" fill="url(#linear-gradient)"/>
      </g>
      <g transform="matrix(1, 0, 0, 1, 9, 37.63)" filter="url(#Path_10)">
        <path id="Path_10-2" data-name="Path 10" d="M.862.015a.869.869,0,0,1,.86.86.838.838,0,0,1-.847.847.869.869,0,0,1-.86-.86A.838.838,0,0,1,.862.015Z" transform="matrix(0.98, -0.17, 0.17, 0.98, 118.98, 116.3)" fill="url(#linear-gradient)"/>
      </g>
      <g transform="matrix(1, 0, 0, 1, 9, 37.63)" filter="url(#Path_12)">
        <path id="Path_12-2" data-name="Path 12" d="M.862.015a.869.869,0,0,1,.86.86.838.838,0,0,1-.847.847.869.869,0,0,1-.86-.86A.838.838,0,0,1,.862.015Z" transform="matrix(0.98, -0.17, 0.17, 0.98, 120.98, 113.3)" fill="url(#linear-gradient)"/>
      </g>
      <g transform="matrix(1, 0, 0, 1, 9, 37.63)" filter="url(#Path_13)">
        <path id="Path_13-2" data-name="Path 13" d="M.862.015a.869.869,0,0,1,.86.86.838.838,0,0,1-.847.847.869.869,0,0,1-.86-.86A.838.838,0,0,1,.862.015Z" transform="matrix(0.98, -0.17, 0.17, 0.98, 122.98, 116.3)" fill="url(#linear-gradient)"/>
      </g>
      <g transform="matrix(1, 0, 0, 1, 9, 37.63)" filter="url(#Path_11)">
        <path id="Path_11-2" data-name="Path 11" d="M1.985.015a2.021,2.021,0,0,1,2,2,1.95,1.95,0,0,1-1.971,1.97,2.021,2.021,0,0,1-2-2A1.95,1.95,0,0,1,1.985.015Z" transform="matrix(0.98, -0.17, 0.17, 0.98, 145.98, 109.3)" fill="url(#linear-gradient)"/>
      </g>
      <g transform="matrix(1, 0, 0, 1, 9, 37.63)" filter="url(#Path_8)">
        <path id="Path_8-2" data-name="Path 8" d="M3.756.015a3.838,3.838,0,0,1,3.8,3.8A3.7,3.7,0,0,1,3.812,7.552a3.838,3.838,0,0,1-3.8-3.8A3.7,3.7,0,0,1,3.756.015Z" transform="matrix(0.98, -0.17, 0.17, 0.98, 68.98, 73.3)" fill="url(#linear-gradient)"/>
      </g>
      <g transform="matrix(1, 0, 0, 1, 9, 37.63)" filter="url(#Path_9)">
        <path id="Path_9-2" data-name="Path 9" d="M3.756.015a3.838,3.838,0,0,1,3.8,3.8A3.7,3.7,0,0,1,3.812,7.552a3.838,3.838,0,0,1-3.8-3.8A3.7,3.7,0,0,1,3.756.015Z" transform="matrix(0.98, -0.17, 0.17, 0.98, 165.98, 58.3)" fill="url(#linear-gradient)"/>
      </g>
      <path id="Polygon_1" data-name="Polygon 1" d="M4.5,0,9,8H0Z" transform="translate(136.763 152.986) rotate(-21)" fill="url(#linear-gradient-13)"/>
    </g>
    <text id="To_Do" data-name="To Do" transform="translate(220 647)" fill="#fff" font-size="45" font-family="SegoeUI-Bold, Segoe UI" font-weight="700"><tspan x="0" y="0">To Do</tspan></text>
  </g>
</svg>
